<svg xmlns="http://www.w3.org/2000/svg" xmlns:xlink="http://www.w3.org/1999/xlink" width="48" height="48" viewBox="0 0 48 48">
  <defs>
    <clipPath id="clip-IconCook">
      <rect width="48" height="48"/>
    </clipPath>
  </defs>
  <g id="IconCook" clip-path="url(#clip-IconCook)">
    <rect width="48" height="48" fill="#fff"/>
    <g id="kids_menu" data-name="kids menu" transform="translate(-66 -414)">
      <g id="Group_518" data-name="Group 518" transform="translate(77.176 440.555)">
        <path id="Path_2694" data-name="Path 2694" d="M108.734,458.717a21.821,21.821,0,0,0-.56-4.914A21.332,21.332,0,0,0,97.508,451q-.463,0-.921.025A2.773,2.773,0,0,0,94,453.814h0a2.8,2.8,0,0,0,2.8,2.8h0a2.112,2.112,0,0,0,2.112-2.112h0" transform="translate(-84.039 -450.998)" fill="none" stroke="#464646" stroke-linecap="round" stroke-linejoin="round" stroke-width="2"/>
        <path id="Path_2695" data-name="Path 2695" d="M84.607,469a11.23,11.23,0,0,0,20.2,0" transform="translate(-81.236 -456.368)" fill="none" stroke="#464646" stroke-linecap="round" stroke-linejoin="round" stroke-width="2"/>
        <path id="Path_2696" data-name="Path 2696" d="M86.508,453.143a23.213,23.213,0,0,0-2.949,1.3A21.836,21.836,0,0,0,83,459.357" transform="translate(-80.757 -451.638)" fill="none" stroke="#464646" stroke-linecap="round" stroke-linejoin="round" stroke-width="2"/>
        <ellipse id="Ellipse_140" data-name="Ellipse 140" cx="1.403" cy="1.403" rx="1.403" ry="1.403" transform="translate(7.155 8.421)" fill="#464646"/>
        <ellipse id="Ellipse_141" data-name="Ellipse 141" cx="1.403" cy="1.403" rx="1.403" ry="1.403" transform="translate(16.977 8.421)" fill="#464646"/>
        <path id="Path_2697" data-name="Path 2697" d="M96,471a3.96,3.96,0,0,0,4.21,0" transform="translate(-84.636 -456.966)" fill="none" stroke="#464646" stroke-linecap="round" stroke-linejoin="round" stroke-width="2"/>
        <path id="Path_2698" data-name="Path 2698" d="M83.12,467.266c-1.7.4-2.779-1.025-3.179-2.722s.035-3.025,1.732-3.424" transform="translate(-79.803 -454.018)" fill="none" stroke="#464646" stroke-linecap="round" stroke-linejoin="round" stroke-width="2"/>
        <path id="Path_2699" data-name="Path 2699" d="M113,467.266c1.7.4,3.109-1.025,3.509-2.722a2.621,2.621,0,0,0-2.061-3.424" transform="translate(-89.708 -454.018)" fill="none" stroke="#464646" stroke-linecap="round" stroke-linejoin="round" stroke-width="2"/>
      </g>
      <g id="Group_519" data-name="Group 519" transform="translate(71 416)">
        <line id="Line_13" data-name="Line 13" y2="5.613" transform="translate(9.121 21.75)" fill="none" stroke="#464646" stroke-linecap="round" stroke-linejoin="round" stroke-width="2"/>
        <line id="Line_14" data-name="Line 14" y2="5.613" transform="translate(30.17 21.75)" fill="none" stroke="#464646" stroke-linecap="round" stroke-linejoin="round" stroke-width="2"/>
        <path id="Path_2700" data-name="Path 2700" d="M96.258,435.116a8.069,8.069,0,1,0,5.964-13.5H99.95a10.519,10.519,0,0,0-18.61,0H79.069a8.069,8.069,0,1,0,5.964,13.5" transform="translate(-71 -416)" fill="none" stroke="#464646" stroke-linecap="round" stroke-linejoin="round" stroke-width="2"/>
        <path id="Path_2701" data-name="Path 2701" d="M103.564,438a8.423,8.423,0,0,1-15.881,0" transform="translate(-75.978 -422.564)" fill="none" stroke="#464646" stroke-linecap="round" stroke-linejoin="round" stroke-width="2"/>
      </g>
    </g>
  </g>
</svg>
