<svg xmlns="http://www.w3.org/2000/svg" xmlns:xlink="http://www.w3.org/1999/xlink" width="48" height="48" viewBox="0 0 48 48">
  <defs>
    <clipPath id="clip-IconHistory">
      <rect width="48" height="48"/>
    </clipPath>
  </defs>
  <g id="IconHistory" clip-path="url(#clip-IconHistory)">
    <rect width="48" height="48" fill="#fff"/>
    <g id="Group_517" data-name="Group 517" transform="translate(-209 -289)">
      <circle id="Ellipse_139" data-name="Ellipse 139" cx="8" cy="8" r="8" transform="translate(239 317)" stroke-width="2" stroke="#4d3d41" stroke-linecap="round" stroke-linejoin="round" fill="none"/>
      <line id="Line_8" data-name="Line 8" y2="3" transform="translate(247 314)" fill="none" stroke="#4d3d41" stroke-linecap="round" stroke-linejoin="round" stroke-width="2"/>
      <line id="Line_9" data-name="Line 9" x2="1.865" y2="1.865" transform="translate(239 318)" fill="none" stroke="#4d3d41" stroke-linecap="round" stroke-linejoin="round" stroke-width="2"/>
      <line id="Line_10" data-name="Line 10" x1="1.866" y2="1.865" transform="translate(253.134 318)" fill="none" stroke="#4d3d41" stroke-linecap="round" stroke-linejoin="round" stroke-width="2"/>
      <line id="Line_11" data-name="Line 11" y2="5" transform="translate(247 321)" fill="none" stroke="#4d3d41" stroke-linecap="round" stroke-linejoin="round" stroke-width="2"/>
      <line id="Line_12" data-name="Line 12" x2="4" transform="translate(245 314)" fill="none" stroke="#4d3d41" stroke-linejoin="round" stroke-width="2"/>
      <path id="Path_2691" data-name="Path 2691" d="M247,311v-4.88l2-1.952V302H211v2.168l2,1.952V321a4,4,0,0,0,4,4h19" fill="none" stroke="#4d3d41" stroke-linejoin="round" stroke-width="2"/>
      <path id="Path_2692" data-name="Path 2692" d="M247,302v-.666a1.993,1.993,0,0,0-1.294-1.873,51.348,51.348,0,0,0-31.412,0A1.992,1.992,0,0,0,213,301.334V302" fill="none" stroke="#4d3d41" stroke-linejoin="round" stroke-width="2"/>
      <path id="Path_2693" data-name="Path 2693" d="M231,297l2-3v-1h-6v1l2,3" fill="none" stroke="#4d3d41" stroke-linejoin="round" stroke-width="2"/>
    </g>
  </g>
</svg>
