<svg xmlns="http://www.w3.org/2000/svg" xmlns:xlink="http://www.w3.org/1999/xlink" width="48" height="48" viewBox="0 0 48 48">
  <defs>
    <clipPath id="clip-path">
      <rect width="36" height="47.79" fill="none"/>
    </clipPath>
    <clipPath id="clip-IconRecipe">
      <rect width="48" height="48"/>
    </clipPath>
  </defs>
  <g id="IconRecipe" clip-path="url(#clip-IconRecipe)">
    <rect width="48" height="48" fill="#fff"/>
    <g id="Component_6_4" data-name="Component 6 – 4" transform="translate(6 0)" clip-path="url(#clip-path)">
      <path id="Path_2685" data-name="Path 2685" d="M55,247V214a5,5,0,0,1,5-5H89v34H86" transform="translate(-54 -208)" fill="none" stroke="#4d3d41" stroke-miterlimit="10" stroke-width="2"/>
      <path id="Path_2686" data-name="Path 2686" d="M62,252H59.585A4.585,4.585,0,0,1,55,247.415v.1A4.525,4.525,0,0,1,59.585,243H89v9H72" transform="translate(-54 -208)" fill="none" stroke="#4d3d41" stroke-miterlimit="10" stroke-width="2"/>
      <path id="Path_2687" data-name="Path 2687" d="M70,248H85v-5" transform="translate(-54 -208)" fill="none" stroke="#4d3d41" stroke-miterlimit="10" stroke-width="2"/>
      <line id="Line_5" data-name="Line 5" x2="6" transform="translate(4 40)" fill="none" stroke="#4d3d41" stroke-miterlimit="10" stroke-width="2"/>
      <path id="Path_2688" data-name="Path 2688" d="M64,246v8l3-1.846L70,254v-8" transform="translate(-54 -208)" fill="none" stroke="#4d3d41" stroke-linecap="round" stroke-miterlimit="10" stroke-width="2"/>
      <line id="Line_6" data-name="Line 6" y2="4" transform="translate(22 6)" fill="none" stroke="#4d3d41" stroke-linecap="round" stroke-linejoin="round" stroke-width="2"/>
      <line id="Line_7" data-name="Line 7" y2="4" transform="translate(25 6)" fill="none" stroke="#4d3d41" stroke-linecap="round" stroke-linejoin="round" stroke-width="2"/>
      <path id="Path_2689" data-name="Path 2689" d="M82,214v7a2.738,2.738,0,0,1-1.774,2.6,1.966,1.966,0,0,0-1.117,1.935L80,237c0,.858-.25,2-2.5,2s-2.5-1.142-2.5-2l.891-11.467a1.966,1.966,0,0,0-1.117-1.935A2.738,2.738,0,0,1,73,221v-7" transform="translate(-54 -208)" fill="none" stroke="#4d3d41" stroke-linecap="round" stroke-linejoin="round" stroke-width="2"/>
      <path id="Path_2690" data-name="Path 2690" d="M63.133,218.139C62.753,220.416,62,227,62,227l2,2v8a1.956,1.956,0,0,0,2,2,1.859,1.859,0,0,0,2-1.875V214.5a1.317,1.317,0,0,0-1.5-1.25C65,213.25,63.531,215.75,63.133,218.139Z" transform="translate(-54 -208)" fill="none" stroke="#4d3d41" stroke-linejoin="round" stroke-width="2"/>
    </g>
  </g>
</svg>
