<svg xmlns="http://www.w3.org/2000/svg" xmlns:xlink="http://www.w3.org/1999/xlink" width="48" height="48" viewBox="0 0 48 48">
  <defs>
    <clipPath id="clip-IconEggs">
      <rect width="48" height="48"/>
    </clipPath>
  </defs>
  <g id="IconEggs" clip-path="url(#clip-IconEggs)">
    <rect width="48" height="48" fill="#fff"/>
    <g id="Group_542" data-name="Group 542" transform="translate(-137.682 -1667.611)">
      <g id="Group_539" data-name="Group 539" transform="translate(140.682 1673.611)">
        <path id="Path_2715" data-name="Path 2715" d="M150.69,1698.619a10.019,10.019,0,0,1-10.008-10.008c0-5.135,4.226-15,10.008-15,4.107,0,7.341,4.969,8.862,9.225a.669.669,0,1,1-1.259.45c-1.484-4.149-4.41-8.337-7.6-8.337-4.471,0-8.67,8.523-8.67,13.663A8.673,8.673,0,0,0,152.88,1697c0-.048,0-.1,0-.142,0-.274.009-.557.027-.839a.669.669,0,0,1,1.335.086c-.016.253-.025.507-.025.753,0,.185.006.381.018.6a.669.669,0,0,1-.462.675A10,10,0,0,1,150.69,1698.619Z" transform="translate(-140.682 -1673.611)" fill="#48494a"/>
      </g>
      <g id="Group_540" data-name="Group 540" transform="translate(165.386 1673.797)">
        <path id="Path_2716" data-name="Path 2716" d="M243.263,1698.942a.669.669,0,0,1-.667-.713c.017-.256.025-.471.025-.676,0-5.338-4.071-14.671-9.088-16.091a.668.668,0,1,1,.364-1.286c5.761,1.63,9.951,11.271,10.059,17.147a8.718,8.718,0,0,0,5.371-8.017c0-5.14-4.2-13.663-8.67-13.663-1.88,0-3.482,1.453-4.5,2.672a.669.669,0,1,1-1.028-.855c1.716-2.063,3.625-3.155,5.524-3.155,5.782,0,10.008,9.865,10.008,15a10.056,10.056,0,0,1-7.215,9.61A.676.676,0,0,1,243.263,1698.942Z" transform="translate(-233.046 -1674.306)" fill="#48494a"/>
      </g>
      <g id="Group_541" data-name="Group 541" transform="translate(152.879 1679.37)">
        <path id="Path_2717" data-name="Path 2717" d="M197.993,1724.465a11.712,11.712,0,0,1-11.689-11.034c-.014-.245-.021-.466-.021-.676a.669.669,0,1,1,1.337,0c0,.185.006.381.018.6a10.37,10.37,0,0,0,20.7.077c.017-.253.025-.474.025-.677,0-5.339-4.071-14.671-9.088-16.091a4.719,4.719,0,0,0-1.284-.185c-2.157,0-4,1.587-5.163,2.917a23.909,23.909,0,0,0-4.94,10.679.669.669,0,0,1-1.315-.242,25.339,25.339,0,0,1,5.249-11.317c1.932-2.207,4.065-3.374,6.169-3.374a6.039,6.039,0,0,1,1.649.235c5.836,1.652,10.061,11.526,10.061,17.377,0,.232-.009.482-.028.764A11.727,11.727,0,0,1,197.993,1724.465Z" transform="translate(-186.283 -1695.143)" fill="#48494a"/>
      </g>
    </g>
  </g>
</svg>
