<svg xmlns="http://www.w3.org/2000/svg" xmlns:xlink="http://www.w3.org/1999/xlink" width="48" height="48" viewBox="0 0 48 48">
  <defs>
    <clipPath id="clip-IconHone">
      <rect width="48" height="48"/>
    </clipPath>
  </defs>
  <g id="IconHone" clip-path="url(#clip-IconHone)">
    <rect width="48" height="48" fill="#fff"/>
    <g id="Group_551" data-name="Group 551" transform="translate(-1438.066 -1635.922)">
      <g id="Group_544" data-name="Group 544" transform="translate(1463.91 1637.922)">
        <path id="Path_2719" data-name="Path 2719" d="M1530.248,1655.555c-1.306,0-2.015-1.272-2.836-2.745a13.846,13.846,0,0,0-2.293-3.285,14.19,14.19,0,0,0-3.361-2.244c-1.41-.752-2.628-1.4-2.792-2.544-.114-.792.311-1.629,1.337-2.633,2.438-2.385,7.349-4.183,11.422-4.183a7.28,7.28,0,0,1,5.184,1.661,4.763,4.763,0,0,1,1.355,3.552c0,3.652-2.885,8.446-5.6,11.1A3.661,3.661,0,0,1,1530.248,1655.555Zm1.479-16.364c-3.716,0-8.344,1.678-10.535,3.821-.863.844-1,1.306-.969,1.545.072.506,1.073,1.039,2.132,1.6a15.423,15.423,0,0,1,3.651,2.457,15.06,15.06,0,0,1,2.514,3.575c.626,1.123,1.167,2.093,1.727,2.093.251,0,.721-.166,1.53-.958,2.565-2.509,5.218-7.008,5.218-10.194a3.545,3.545,0,0,0-.973-2.644A6.091,6.091,0,0,0,1531.726,1639.191Z" transform="translate(-1518.948 -1637.922)" fill="#48494a"/>
      </g>
      <g id="Group_545" data-name="Group 545" transform="translate(1441.066 1652.07)">
        <path id="Path_2720" data-name="Path 2720" d="M1457.265,1710.866c-.46,0-2.211-.322-5.55-4.492-2.206-2.756-6.584-2.316-8.686-2.1-1.147.115-1.672.168-1.906-.371a.768.768,0,0,1,.291-.928c1.185-1.036,6.761-2.657,8.5-3.146.618-8.419,16.932-18.3,17.639-18.721a.635.635,0,0,1,.653,1.088c-.171.1-17.042,10.315-17.041,18.12a.635.635,0,0,1-.467.612c-1.775.486-4.327,1.258-6.186,1.946,2.518-.144,6.068.058,8.191,2.71a20.418,20.418,0,0,0,2.891,3.047c-1.033-1.823-2.39-4.436-2.523-5.785a.635.635,0,0,1,1.263-.124c.148,1.512,2.564,5.694,3.482,7.179a.635.635,0,0,1-.482.966C1457.318,1710.865,1457.294,1710.866,1457.265,1710.866Z" transform="translate(-1441.066 -1681.014)" fill="#48494a"/>
      </g>
      <g id="Group_546" data-name="Group 546" transform="translate(1468.013 1642.002)">
        <path id="Path_2721" data-name="Path 2721" d="M1540.843,1658.561a2.323,2.323,0,0,1-1.634-.664,2.256,2.256,0,0,1,0-3.236,2.344,2.344,0,0,1,3.269,0,2.256,2.256,0,0,1,0,3.236A2.324,2.324,0,0,1,1540.843,1658.561Zm0-3.294a1.061,1.061,0,0,0-.747.3.987.987,0,0,0,0,1.422,1.076,1.076,0,0,0,1.494,0,.987.987,0,0,0,0-1.422A1.062,1.062,0,0,0,1540.843,1655.266Z" transform="translate(-1538.525 -1653.997)" fill="#48494a"/>
      </g>
      <g id="Group_547" data-name="Group 547" transform="translate(1456.823 1647.95)">
        <path id="Path_2722" data-name="Path 2722" d="M1511.049,1687.179a.635.635,0,0,1-.582-.382c-4.058-9.323-14-12.321-14.1-12.35a.634.634,0,0,1,.354-1.218c.431.125,10.608,3.181,14.909,13.062a.635.635,0,0,1-.582.888Z" transform="translate(-1495.91 -1673.203)" fill="#48494a"/>
      </g>
      <g id="Group_548" data-name="Group 548" transform="translate(1450.416 1649.412)">
        <path id="Path_2723" data-name="Path 2723" d="M1491.562,1695.095a.635.635,0,0,1-.562-.34c-5.829-11.112-17.515-15.749-17.632-15.795a.635.635,0,0,1,.458-1.183c.5.192,12.241,4.843,18.3,16.389a.635.635,0,0,1-.561.93Z" transform="translate(-1472.962 -1677.733)" fill="#48494a"/>
      </g>
      <g id="Group_549" data-name="Group 549" transform="translate(1448.286 1655.02)">
        <path id="Path_2724" data-name="Path 2724" d="M1481.236,1711.973a.635.635,0,0,1-.583-.383c-4.009-9.283-13.886-12.211-13.985-12.24a.635.635,0,0,1,.35-1.22c.429.123,10.555,3.127,14.8,12.957a.635.635,0,0,1-.582.886Z" transform="translate(-1466.208 -1698.105)" fill="#48494a"/>
      </g>
      <g id="Group_550" data-name="Group 550" transform="translate(1448.563 1661.507)">
        <path id="Path_2725" data-name="Path 2725" d="M1475.7,1730.278a.634.634,0,0,1-.568-.351,13.569,13.569,0,0,0-6.807-6.062.635.635,0,0,1,.429-1.194,14.683,14.683,0,0,1,7.513,6.689.635.635,0,0,1-.567.918Z" transform="translate(-1467.91 -1722.633)" fill="#48494a"/>
      </g>
    </g>
  </g>
</svg>
